<svg width="807" height="807" viewBox="0 0 807 807" fill="none" xmlns="http://www.w3.org/2000/svg">
<circle cx="403.5" cy="403.5" r="403.5" fill="#F5F5F5"/>
<path d="M388.379 209.021L368.502 228.942V294.05L416.013 279.473V225.055L388.379 209.021Z" fill="#F6407F"/>
<path d="M344.261 235.258L325.838 261.01L331.656 308.14L344.261 333.892H362.199V244.004L344.261 235.258Z" fill="#F6407F"/>
<path d="M305.476 261.01L292.386 273.643V333.892L317.111 343.124L325.838 333.892L317.111 273.643L305.476 261.01Z" fill="#F6407F"/>
<path d="M419.892 342.638L380.137 302.796L461.101 274.615L515.4 336.321L439.769 442.243H380.137V376.164L461.101 336.321L419.892 342.638Z" fill="#F6407F"/>
<path d="M440.739 216.309L424.255 232.829V276.072L458.677 265.869L474.191 273.643V232.829L440.739 216.309Z" fill="#F6407F"/>
<path d="M392.742 350.898H295.78L317.596 442.243H370.441V367.418L392.742 350.898Z" fill="#F6407F"/>
<path d="M377.228 454.876H323.899V546.222H371.948V465.026H345.547L377.228 454.876Z" fill="#F6407F"/>
<path d="M382.076 454.876H436.375V546.222H398.709V483.514L420.722 461.295H392.838V546.222H382.076V454.876Z" fill="#F6407F"/>
<path d="M371.948 546.222H323.899V575.988H269.692V648.87H323.899V696H436.375V648.87H490.592V575.988H436.375V546.222H398.709H392.838H382.076H371.948Z" fill="#F6407F"/>
<path d="M453.226 520.854C499.208 509.479 539.924 482.681 568.61 444.911C597.296 407.142 612.227 360.674 610.921 313.225C609.616 265.777 592.153 220.204 561.434 184.076C530.715 147.948 488.588 123.439 442.05 114.621C395.512 105.802 347.365 113.205 305.605 135.599C263.845 157.992 230.986 194.03 212.485 237.725C193.985 281.421 190.956 330.144 203.903 375.803C216.85 421.461 244.992 461.307 283.656 488.722L300.934 464.247C267.844 440.784 243.759 406.683 232.679 367.607C221.599 328.531 224.191 286.832 240.024 249.437C255.858 212.041 283.979 181.199 319.719 162.034C355.458 142.868 396.664 136.533 436.492 144.08C476.32 151.627 512.374 172.602 538.664 203.522C564.955 234.441 579.9 273.444 581.017 314.052C582.134 354.659 569.356 394.428 544.806 426.752C520.256 459.077 485.41 482.011 446.057 491.746L453.226 520.854Z" fill="#F6407F"/>
</svg>
