<svg width="73" height="95" viewBox="0 0 73 95" fill="none" xmlns="http://www.w3.org/2000/svg">
<path d="M61.6922 22.32C62.0634 21.4942 63.2653 21.4551 63.5692 22.3042C66.944 31.7341 64.2828 39.0225 62.3513 42.3285C60.2632 45.9026 55.7274 47.1778 52.2203 45.1769C48.7132 43.1759 47.5629 38.6565 49.651 35.0824C51.5818 31.7776 57.6872 31.2319 61.6922 22.32Z" fill="url(#paint0_radial_242_4)"/>
<path d="M61.5391 47.8792C62.4431 47.7844 63.0683 48.8094 62.4731 49.4964C55.9001 57.0832 48.1916 58.4478 44.3317 58.4478C40.1555 58.4478 36.77 55.2036 36.77 51.2017C36.77 47.1998 40.1555 43.9556 44.3317 43.9556C48.1937 43.9556 51.7248 48.9086 61.5391 47.8792Z" fill="url(#paint1_radial_242_4)"/>
<path d="M40.7539 61.857C41.4115 62.4833 41.0335 63.6133 40.1213 63.605C30.0034 63.512 23.9846 58.5492 21.5019 55.6254C18.8175 52.4639 19.1562 47.8158 22.2584 45.2434C25.3606 42.671 30.0516 43.1485 32.7361 46.31C35.2183 49.2333 33.6489 55.0897 40.7539 61.857Z" fill="url(#paint2_radial_242_4)"/>
<path d="M16.8647 54.7207C16.8016 55.6239 15.6897 56.0704 15.1108 55.3762C8.67132 47.654 8.64933 39.9029 9.3203 36.1425C10.0455 32.0782 13.8664 29.3469 17.8545 30.0418C21.8427 30.7367 24.4878 34.5948 23.7626 38.6591C23.0921 42.4171 17.544 44.9934 16.8647 54.7207Z" fill="url(#paint3_radial_242_4)"/>
<path d="M7.53394 32.0455C6.79759 32.5753 5.73737 32.0028 5.90475 31.1149C7.75666 21.2914 13.7444 16.2987 17.0881 14.391C20.7048 12.3275 25.2781 13.4643 27.303 16.93C29.3278 20.3958 28.0373 24.8781 24.4206 26.9416C21.0762 28.8497 15.5122 26.3052 7.53394 32.0455Z" fill="url(#paint4_radial_242_4)"/>
<path d="M19.4297 10.7845C18.5466 10.5678 18.3115 9.39516 19.108 8.95096C27.9118 4.04097 35.6292 5.3643 39.2568 6.66906C43.1811 8.08057 45.2396 12.2734 43.8546 16.0339C42.4695 19.7945 38.1654 21.6988 34.241 20.2873C30.612 18.982 29.0081 13.1343 19.4297 10.7845Z" fill="url(#paint5_radial_242_4)"/>
<path d="M43.4541 6.60451C43.052 5.7918 43.7911 4.85614 44.6441 5.17153C54.1262 8.67769 58.0664 15.3786 59.3878 18.9663C60.8161 22.8444 58.8891 27.0978 55.0837 28.4665C51.2783 29.8352 47.0355 27.801 45.6071 23.9229C44.2864 20.337 47.7877 15.3645 43.4541 6.60451Z" fill="url(#paint6_radial_242_4)"/>
<path d="M6 77.983V66.415H9.152C10.2933 66.415 11.264 66.591 12.064 66.943C12.8747 67.295 13.5253 67.759 14.016 68.335C14.5067 68.911 14.864 69.551 15.088 70.255C15.3227 70.9484 15.44 71.6417 15.44 72.335C15.44 73.2097 15.2853 73.9937 14.976 74.687C14.6773 75.3804 14.2613 75.9724 13.728 76.463C13.1947 76.9537 12.5813 77.3324 11.888 77.599C11.2053 77.855 10.48 77.983 9.712 77.983H6ZM7.552 76.495H9.408C10.048 76.495 10.6347 76.399 11.168 76.207C11.712 76.015 12.1813 75.7377 12.576 75.375C12.9813 75.0124 13.296 74.5697 13.52 74.047C13.744 73.5137 13.856 72.911 13.856 72.239C13.856 71.5244 13.7387 70.9004 13.504 70.367C13.2693 69.823 12.9493 69.3697 12.544 69.007C12.1387 68.6444 11.68 68.3724 11.168 68.191C10.656 67.999 10.1173 67.903 9.552 67.903H7.552V76.495Z" fill="white"/>
<path d="M17.6789 71.359H19.1669V77.983H17.6789V71.359Z" fill="white"/>
<path d="M23.0694 71.359L23.2134 73.279L23.1334 73.023C23.304 72.6177 23.5494 72.2764 23.8694 71.999C24.2 71.711 24.5414 71.4924 24.8934 71.343C25.256 71.183 25.5707 71.103 25.8374 71.103L25.7574 72.575C25.256 72.543 24.8134 72.639 24.4294 72.863C24.056 73.087 23.7574 73.3857 23.5334 73.759C23.32 74.1324 23.2134 74.5324 23.2134 74.959V77.983H21.7414V71.359H23.0694Z" fill="white"/>
<path d="M30.5478 78.143C29.7904 78.143 29.1398 77.9937 28.5958 77.695C28.0518 77.3857 27.6304 76.9697 27.3318 76.447C27.0438 75.9137 26.8997 75.3057 26.8997 74.623C26.8997 73.9724 27.0651 73.3804 27.3958 72.847C27.7264 72.3137 28.1691 71.887 28.7238 71.567C29.2784 71.247 29.8971 71.087 30.5798 71.087C31.4544 71.087 32.1798 71.343 32.7558 71.855C33.3318 72.367 33.7211 73.071 33.9237 73.967L28.4678 75.887L28.1157 75.007L32.5958 73.375L32.2757 73.583C32.1477 73.231 31.9344 72.927 31.6357 72.671C31.3371 72.4044 30.9478 72.271 30.4678 72.271C30.0624 72.271 29.6997 72.3724 29.3797 72.575C29.0597 72.767 28.8091 73.0337 28.6278 73.375C28.4464 73.7164 28.3558 74.1057 28.3558 74.543C28.3558 75.0017 28.4517 75.407 28.6437 75.759C28.8357 76.1004 29.0971 76.3724 29.4277 76.575C29.7691 76.767 30.1531 76.863 30.5798 76.863C30.8678 76.863 31.1451 76.8097 31.4118 76.703C31.6891 76.5964 31.9451 76.4577 32.1798 76.287L32.8678 77.391C32.5371 77.615 32.1637 77.7964 31.7477 77.935C31.3424 78.0737 30.9424 78.143 30.5478 78.143Z" fill="white"/>
<path d="M35.7882 71.359H37.2763V77.983H35.7882V71.359Z" fill="white"/>
<path d="M40.4907 68.447H41.9788V71.391H43.8027V72.559H41.9788V77.983H40.4907V72.559H39.2747V71.391H40.4907V68.447Z" fill="white"/>
<path d="M45.0247 74.607C45.0247 73.9457 45.1794 73.3484 45.4888 72.815C45.8088 72.2817 46.2461 71.8604 46.8008 71.551C47.3554 71.2417 47.9848 71.087 48.6888 71.087C49.4141 71.087 50.0488 71.2417 50.5928 71.551C51.1367 71.8604 51.5581 72.2817 51.8568 72.815C52.1554 73.3484 52.3047 73.9457 52.3047 74.607C52.3047 75.2684 52.1554 75.871 51.8568 76.415C51.5581 76.9484 51.1314 77.3697 50.5768 77.679C50.0328 77.9884 49.3981 78.143 48.6727 78.143C47.9688 78.143 47.3394 77.999 46.7848 77.711C46.2408 77.4124 45.8088 77.0017 45.4888 76.479C45.1794 75.9457 45.0247 75.3217 45.0247 74.607ZM46.5127 74.623C46.5127 75.0497 46.6087 75.439 46.8008 75.791C46.9928 76.1324 47.2487 76.4044 47.5687 76.607C47.8994 76.8097 48.2621 76.911 48.6567 76.911C49.0728 76.911 49.4408 76.8097 49.7607 76.607C50.0914 76.4044 50.3474 76.1324 50.5288 75.791C50.7101 75.439 50.8008 75.0497 50.8008 74.623C50.8008 74.1964 50.7101 73.8124 50.5288 73.471C50.3474 73.119 50.0914 72.8417 49.7607 72.639C49.4408 72.4257 49.0728 72.319 48.6567 72.319C48.2514 72.319 47.8834 72.4257 47.5527 72.639C47.2327 72.8524 46.9768 73.135 46.7848 73.487C46.6034 73.8284 46.5127 74.207 46.5127 74.623Z" fill="white"/>
<path d="M56.1755 78.111C55.7062 78.111 55.2475 78.031 54.7995 77.871C54.3622 77.7004 53.9995 77.4497 53.7115 77.119L54.3355 76.255C54.6128 76.5217 54.8955 76.7244 55.1835 76.863C55.4822 76.991 55.7755 77.055 56.0635 77.055C56.2768 77.055 56.4742 77.0284 56.6555 76.975C56.8368 76.9217 56.9808 76.8364 57.0875 76.719C57.2048 76.591 57.2635 76.4204 57.2635 76.207C57.2635 75.9724 57.1835 75.7857 57.0235 75.647C56.8742 75.5084 56.6768 75.3964 56.4315 75.311C56.1968 75.2257 55.9462 75.1457 55.6795 75.071C55.1355 74.8897 54.7195 74.639 54.4315 74.319C54.1435 73.999 53.9995 73.6097 53.9995 73.151C53.9995 72.799 54.0848 72.4737 54.2555 72.175C54.4368 71.8657 54.6982 71.615 55.0395 71.423C55.3915 71.231 55.8235 71.135 56.3355 71.135C56.7942 71.135 57.2048 71.1937 57.5675 71.311C57.9302 71.4177 58.2715 71.599 58.5915 71.855L57.9995 72.783C57.8075 72.5804 57.5782 72.431 57.3115 72.335C57.0448 72.239 56.8048 72.1857 56.5915 72.175C56.4102 72.1644 56.2342 72.191 56.0635 72.255C55.9035 72.319 55.7702 72.4097 55.6635 72.527C55.5568 72.6444 55.5035 72.783 55.5035 72.943C55.5035 73.167 55.5782 73.3484 55.7275 73.487C55.8768 73.6257 56.0688 73.7377 56.3035 73.823C56.5488 73.8977 56.7888 73.9777 57.0235 74.063C57.3542 74.159 57.6475 74.287 57.9035 74.447C58.1595 74.607 58.3622 74.8044 58.5115 75.039C58.6715 75.2737 58.7515 75.567 58.7515 75.919C58.7515 76.3137 58.6555 76.6817 58.4635 77.023C58.2822 77.3537 57.9995 77.6204 57.6155 77.823C57.2422 78.015 56.7622 78.111 56.1755 78.111Z" fill="white"/>
<path d="M15.152 82.415V93.983H13.616V88.911H7.552V93.983H6V82.415H7.552V87.439H13.616V82.415H15.152Z" fill="white"/>
<path d="M20.2124 94.239C19.615 94.239 19.119 94.0577 18.7244 93.695C18.3404 93.3217 18.1377 92.8417 18.1164 92.255V87.359H19.6044V91.727C19.6257 92.0897 19.727 92.383 19.9084 92.607C20.1004 92.831 20.399 92.9484 20.8044 92.959C21.1777 92.959 21.5084 92.8524 21.7964 92.639C22.095 92.415 22.335 92.1164 22.5164 91.743C22.6977 91.359 22.7884 90.927 22.7884 90.447V87.359H24.2764V93.983H22.9164L22.7884 92.351L22.8684 92.639C22.7404 92.9484 22.543 93.2257 22.2764 93.471C22.0204 93.7057 21.7164 93.8924 21.3644 94.031C21.0124 94.1697 20.6284 94.239 20.2124 94.239Z" fill="white"/>
<path d="M28.1787 87.359L28.3067 88.847L28.2428 88.719C28.4881 88.2177 28.8347 87.823 29.2827 87.535C29.7414 87.247 30.2641 87.103 30.8507 87.103C31.2241 87.103 31.5548 87.1617 31.8428 87.279C32.1308 87.3964 32.3654 87.567 32.5467 87.791C32.7387 88.0044 32.8614 88.271 32.9147 88.591L32.8348 88.639C33.0908 88.159 33.4428 87.7857 33.8908 87.519C34.3494 87.2417 34.8294 87.103 35.3307 87.103C35.9814 87.103 36.4934 87.2897 36.8668 87.663C37.2508 88.0257 37.4481 88.5004 37.4587 89.087V93.983H35.9708V89.615C35.9601 89.2737 35.8748 88.991 35.7148 88.767C35.5654 88.5324 35.2988 88.4044 34.9148 88.383C34.5308 88.383 34.1841 88.5004 33.8748 88.735C33.5761 88.9697 33.3414 89.2737 33.1707 89.647C33.0001 90.0097 32.9094 90.4044 32.8988 90.831V93.983H31.4108V89.615C31.4001 89.2737 31.3094 88.991 31.1388 88.767C30.9788 88.5324 30.7068 88.4044 30.3228 88.383C29.9281 88.383 29.5814 88.5004 29.2827 88.735C28.9841 88.9697 28.7494 89.2737 28.5788 89.647C28.4188 90.0204 28.3388 90.4204 28.3388 90.847V93.983H26.8507V87.359H28.1787Z" fill="white"/>
<path d="M42.8059 94.143C42.1872 94.143 41.6219 94.0097 41.1099 93.743C40.6085 93.4764 40.2085 93.087 39.9099 92.575C39.6219 92.0524 39.4779 91.4177 39.4779 90.671C39.4779 89.935 39.6325 89.3004 39.9419 88.767C40.2512 88.223 40.6619 87.807 41.1739 87.519C41.6965 87.231 42.2672 87.087 42.8859 87.087C43.5045 87.087 44.0272 87.231 44.4539 87.519C44.8805 87.7964 45.2059 88.127 45.4299 88.511L45.3339 88.767L45.4779 87.359H46.8539V93.983H45.3659V92.255L45.5259 92.639C45.4832 92.7457 45.3872 92.8844 45.2379 93.055C45.0992 93.215 44.9072 93.3804 44.6619 93.551C44.4272 93.7217 44.1552 93.8657 43.8459 93.983C43.5365 94.0897 43.1899 94.143 42.8059 94.143ZM43.2059 92.911C43.5792 92.911 43.9152 92.8417 44.2139 92.703C44.5125 92.5644 44.7579 92.3724 44.9499 92.127C45.1525 91.871 45.2912 91.567 45.3659 91.215V89.919C45.2805 89.599 45.1312 89.3217 44.9179 89.087C44.7045 88.8417 44.4485 88.655 44.1499 88.527C43.8512 88.3884 43.5205 88.319 43.1579 88.319C42.7632 88.319 42.4005 88.415 42.0699 88.607C41.7392 88.799 41.4725 89.0657 41.2699 89.407C41.0779 89.7484 40.9819 90.1484 40.9819 90.607C40.9819 91.0337 41.0832 91.423 41.2859 91.775C41.4885 92.127 41.7605 92.4044 42.1019 92.607C42.4432 92.8097 42.8112 92.911 43.2059 92.911Z" fill="white"/>
<path d="M50.7569 87.359L50.8849 88.975L50.8209 88.719C51.0342 88.2284 51.3809 87.839 51.8609 87.551C52.3409 87.2524 52.8955 87.103 53.5249 87.103C54.1542 87.103 54.6662 87.2897 55.0609 87.663C55.4662 88.0257 55.6742 88.5004 55.6849 89.087V93.983H54.1809V89.615C54.1702 89.2524 54.0635 88.959 53.8609 88.735C53.6689 88.5004 53.3649 88.383 52.9489 88.383C52.5649 88.383 52.2182 88.4897 51.9089 88.703C51.5995 88.9164 51.3542 89.2097 51.1729 89.583C51.0022 89.9564 50.9169 90.3884 50.9169 90.879V93.983H49.4289V87.359H50.7569Z" fill="white"/>
<path d="M57.6966 90.607C57.6966 89.9457 57.8513 89.3484 58.1606 88.815C58.4806 88.2817 58.918 87.8604 59.4726 87.551C60.0273 87.2417 60.6566 87.087 61.3606 87.087C62.086 87.087 62.7206 87.2417 63.2646 87.551C63.8086 87.8604 64.23 88.2817 64.5286 88.815C64.8273 89.3484 64.9766 89.9457 64.9766 90.607C64.9766 91.2684 64.8273 91.871 64.5286 92.415C64.23 92.9484 63.8033 93.3697 63.2486 93.679C62.7046 93.9884 62.07 94.143 61.3446 94.143C60.6406 94.143 60.0113 93.999 59.4566 93.711C58.9126 93.4124 58.4806 93.0017 58.1606 92.479C57.8513 91.9457 57.6966 91.3217 57.6966 90.607ZM59.1846 90.623C59.1846 91.0497 59.2806 91.439 59.4726 91.791C59.6646 92.1324 59.9206 92.4044 60.2406 92.607C60.5713 92.8097 60.934 92.911 61.3286 92.911C61.7446 92.911 62.1126 92.8097 62.4326 92.607C62.7633 92.4044 63.0193 92.1324 63.2006 91.791C63.382 91.439 63.4726 91.0497 63.4726 90.623C63.4726 90.1964 63.382 89.8124 63.2006 89.471C63.0193 89.119 62.7633 88.8417 62.4326 88.639C62.1126 88.4257 61.7446 88.319 61.3286 88.319C60.9233 88.319 60.5553 88.4257 60.2246 88.639C59.9046 88.8524 59.6486 89.135 59.4566 89.487C59.2753 89.8284 59.1846 90.207 59.1846 90.623Z" fill="white"/>
<path d="M68.8474 94.111C68.378 94.111 67.9194 94.031 67.4714 93.871C67.034 93.7004 66.6714 93.4497 66.3834 93.119L67.0074 92.255C67.2847 92.5217 67.5674 92.7244 67.8554 92.863C68.154 92.991 68.4474 93.055 68.7354 93.055C68.9487 93.055 69.146 93.0284 69.3274 92.975C69.5087 92.9217 69.6527 92.8364 69.7594 92.719C69.8767 92.591 69.9354 92.4204 69.9354 92.207C69.9354 91.9724 69.8554 91.7857 69.6954 91.647C69.546 91.5084 69.3487 91.3964 69.1034 91.311C68.8687 91.2257 68.618 91.1457 68.3514 91.071C67.8074 90.8897 67.3914 90.639 67.1034 90.319C66.8154 89.999 66.6714 89.6097 66.6714 89.151C66.6714 88.799 66.7567 88.4737 66.9274 88.175C67.1087 87.8657 67.37 87.615 67.7114 87.423C68.0634 87.231 68.4954 87.135 69.0074 87.135C69.466 87.135 69.8767 87.1937 70.2394 87.311C70.602 87.4177 70.9434 87.599 71.2634 87.855L70.6714 88.783C70.4794 88.5804 70.25 88.431 69.9834 88.335C69.7167 88.239 69.4767 88.1857 69.2634 88.175C69.082 88.1644 68.906 88.191 68.7354 88.255C68.5754 88.319 68.442 88.4097 68.3354 88.527C68.2287 88.6444 68.1754 88.783 68.1754 88.943C68.1754 89.167 68.25 89.3484 68.3994 89.487C68.5487 89.6257 68.7407 89.7377 68.9754 89.823C69.2207 89.8977 69.4607 89.9777 69.6954 90.063C70.026 90.159 70.3194 90.287 70.5754 90.447C70.8314 90.607 71.034 90.8044 71.1834 91.039C71.3434 91.2737 71.4234 91.567 71.4234 91.919C71.4234 92.3137 71.3274 92.6817 71.1354 93.023C70.954 93.3537 70.6714 93.6204 70.2874 93.823C69.914 94.015 69.434 94.111 68.8474 94.111Z" fill="white"/>
<path d="M20.7399 66.3299C20.8454 66.1824 20.7312 65.9718 20.552 66.0031C18.7684 66.315 18.0221 67.168 17.671 67.7761C17.2886 68.4384 17.5063 69.2747 18.1573 69.644C18.8083 70.0133 19.646 69.7757 20.0284 69.1133C20.3791 68.5059 19.7365 67.7333 20.7399 66.3299Z" fill="white"/>
<path d="M38.7399 66.3299C38.8454 66.1824 38.7312 65.9718 38.552 66.0031C36.7684 66.315 36.0221 67.168 35.671 67.7761C35.2886 68.4384 35.5063 69.2747 36.1573 69.644C36.8083 70.0133 37.646 69.7757 38.0284 69.1133C38.3791 68.5059 37.7365 67.7333 38.7399 66.3299Z" fill="white"/>
<defs>
<radialGradient id="paint0_radial_242_4" cx="0" cy="0" r="1" gradientUnits="userSpaceOnUse" gradientTransform="translate(55.8229 39.0105) rotate(-68.2732) scale(20.1044 15.5312)">
<stop stop-color="#F94181"/>
<stop offset="1" stop-color="#8B1840"/>
</radialGradient>
<radialGradient id="paint1_radial_242_4" cx="0" cy="0" r="1" gradientUnits="userSpaceOnUse" gradientTransform="translate(43.9753 51.2017) rotate(-8.40705) scale(20.3063 15.3767)">
<stop stop-color="#F94181"/>
<stop offset="1" stop-color="#8B1840"/>
</radialGradient>
<radialGradient id="paint2_radial_242_4" cx="0" cy="0" r="1" gradientUnits="userSpaceOnUse" gradientTransform="translate(26.8899 50.6979) rotate(41.1571) scale(20.2068 15.4525)">
<stop stop-color="#F94181"/>
<stop offset="1" stop-color="#8B1840"/>
</radialGradient>
<radialGradient id="paint3_radial_242_4" cx="0" cy="0" r="1" gradientUnits="userSpaceOnUse" gradientTransform="translate(16.6034 37.0539) rotate(91.5119) scale(20.0722 15.5561)">
<stop stop-color="#F94181"/>
<stop offset="1" stop-color="#8B1840"/>
</radialGradient>
<radialGradient id="paint4_radial_242_4" cx="0" cy="0" r="1" gradientUnits="userSpaceOnUse" gradientTransform="translate(21.063 20.4902) rotate(141.825) scale(20.2191 15.4431)">
<stop stop-color="#F94181"/>
<stop offset="1" stop-color="#8B1840"/>
</radialGradient>
<radialGradient id="paint5_radial_242_4" cx="0" cy="0" r="1" gradientUnits="userSpaceOnUse" gradientTransform="translate(37.0838 13.5986) rotate(-168.638) scale(20.3021 15.3799)">
<stop stop-color="#F94181"/>
<stop offset="1" stop-color="#8B1840"/>
</radialGradient>
<radialGradient id="paint6_radial_242_4" cx="0" cy="0" r="1" gradientUnits="userSpaceOnUse" gradientTransform="translate(52.6194 21.7756) rotate(-118.792) scale(20.1269 15.5138)">
<stop stop-color="#F94181"/>
<stop offset="1" stop-color="#8B1840"/>
</radialGradient>
</defs>
</svg>
