<svg width="140" height="71" viewBox="0 0 140 71" fill="none" xmlns="http://www.w3.org/2000/svg">
<path d="M61.6922 22.3197C62.0634 21.4938 63.2653 21.4548 63.5692 22.3039C66.944 31.7337 64.2828 39.0221 62.3513 42.3282C60.2632 45.9022 55.7274 47.1775 52.2203 45.1765C48.7132 43.1756 47.5629 38.6561 49.651 35.0821C51.5818 31.7772 57.6872 31.2316 61.6922 22.3197Z" fill="url(#paint0_radial_242_5)"/>
<path d="M61.5391 47.8788C62.4431 47.7839 63.0683 48.8089 62.4731 49.4959C55.9001 57.0828 48.1916 58.4473 44.3317 58.4473C40.1555 58.4473 36.77 55.2031 36.77 51.2012C36.77 47.1993 40.1555 43.9551 44.3317 43.9551C48.1937 43.9551 51.7248 48.9082 61.5391 47.8788Z" fill="url(#paint1_radial_242_5)"/>
<path d="M40.7539 61.8567C41.4115 62.483 41.0335 63.613 40.1213 63.6047C30.0034 63.5117 23.9846 58.5489 21.5019 55.6251C18.8175 52.4636 19.1562 47.8155 22.2584 45.2431C25.3606 42.6707 30.0516 43.1482 32.7361 46.3097C35.2183 49.233 33.6489 55.0894 40.7539 61.8567Z" fill="url(#paint2_radial_242_5)"/>
<path d="M16.8647 54.7204C16.8016 55.6235 15.6897 56.0701 15.1108 55.3759C8.67132 47.6536 8.64933 39.9025 9.3203 36.1421C10.0455 32.0779 13.8664 29.3465 17.8545 30.0414C21.8427 30.7363 24.4878 34.5944 23.7626 38.6587C23.0921 42.4167 17.544 44.993 16.8647 54.7204Z" fill="url(#paint3_radial_242_5)"/>
<path d="M7.53394 32.0451C6.79759 32.5749 5.73737 32.0024 5.90475 31.1146C7.75666 21.291 13.7444 16.2983 17.0881 14.3906C20.7048 12.3271 25.2781 13.4639 27.303 16.9297C29.3278 20.3954 28.0373 24.8777 24.4206 26.9412C21.0762 28.8494 15.5122 26.3048 7.53394 32.0451Z" fill="url(#paint4_radial_242_5)"/>
<path d="M19.4297 10.7841C18.5466 10.5675 18.3115 9.39479 19.108 8.95059C27.9118 4.0406 35.6292 5.36393 39.2568 6.6687C43.1811 8.0802 45.2396 12.273 43.8546 16.0336C42.4695 19.7941 38.1654 21.6984 34.241 20.2869C30.612 18.9816 29.0081 13.1339 19.4297 10.7841Z" fill="url(#paint5_radial_242_5)"/>
<path d="M43.4541 6.60414C43.052 5.79144 43.7911 4.85577 44.6441 5.17116C54.1262 8.67732 58.0664 15.3782 59.3878 18.966C60.8161 22.844 58.8891 27.0974 55.0837 28.4661C51.2783 29.8349 47.0355 27.8007 45.6071 23.9226C44.2864 20.3367 47.7877 15.3641 43.4541 6.60414Z" fill="url(#paint6_radial_242_5)"/>
<path d="M73.6641 30.9996V19.4316H76.8161C77.9574 19.4316 78.9281 19.6076 79.7281 19.9596C80.5387 20.3116 81.1894 20.7756 81.6801 21.3516C82.1707 21.9276 82.5281 22.5676 82.7521 23.2716C82.9867 23.965 83.1041 24.6583 83.1041 25.3516C83.1041 26.2263 82.9494 27.0103 82.6401 27.7036C82.3414 28.397 81.9254 28.989 81.3921 29.4796C80.8587 29.9703 80.2454 30.349 79.5521 30.6156C78.8694 30.8716 78.1441 30.9996 77.3761 30.9996H73.6641ZM75.2161 29.5116H77.0721C77.7121 29.5116 78.2987 29.4156 78.8321 29.2236C79.3761 29.0316 79.8454 28.7543 80.2401 28.3916C80.6454 28.029 80.9601 27.5863 81.1841 27.0636C81.4081 26.5303 81.5201 25.9276 81.5201 25.2556C81.5201 24.541 81.4027 23.917 81.1681 23.3836C80.9334 22.8396 80.6134 22.3863 80.2081 22.0236C79.8027 21.661 79.3441 21.389 78.8321 21.2076C78.3201 21.0156 77.7814 20.9196 77.2161 20.9196H75.2161V29.5116Z" fill="white"/>
<path d="M85.3429 24.3756H86.8309V30.9996H85.3429V24.3756Z" fill="white"/>
<path d="M90.7334 24.3756L90.8774 26.2956L90.7974 26.0396C90.9681 25.6343 91.2134 25.293 91.5334 25.0156C91.8641 24.7276 92.2054 24.509 92.5574 24.3596C92.9201 24.1996 93.2348 24.1196 93.5014 24.1196L93.4214 25.5916C92.9201 25.5596 92.4774 25.6556 92.0934 25.8796C91.7201 26.1036 91.4214 26.4023 91.1974 26.7756C90.9841 27.149 90.8774 27.549 90.8774 27.9756V30.9996H89.4054V24.3756H90.7334Z" fill="white"/>
<path d="M98.2118 31.1596C97.4545 31.1596 96.8038 31.0103 96.2598 30.7116C95.7158 30.4023 95.2945 29.9863 94.9958 29.4636C94.7078 28.9303 94.5638 28.3223 94.5638 27.6396C94.5638 26.989 94.7291 26.397 95.0598 25.8636C95.3905 25.3303 95.8331 24.9036 96.3878 24.5836C96.9425 24.2636 97.5611 24.1036 98.2438 24.1036C99.1185 24.1036 99.8438 24.3596 100.42 24.8716C100.996 25.3836 101.385 26.0876 101.588 26.9836L96.1318 28.9036L95.7798 28.0236L100.26 26.3916L99.9398 26.5996C99.8118 26.2476 99.5985 25.9436 99.2998 25.6876C99.0011 25.421 98.6118 25.2876 98.1318 25.2876C97.7265 25.2876 97.3638 25.389 97.0438 25.5916C96.7238 25.7836 96.4731 26.0503 96.2918 26.3916C96.1105 26.733 96.0198 27.1223 96.0198 27.5596C96.0198 28.0183 96.1158 28.4236 96.3078 28.7756C96.4998 29.117 96.7611 29.389 97.0918 29.5916C97.4331 29.7836 97.8171 29.8796 98.2438 29.8796C98.5318 29.8796 98.8091 29.8263 99.0758 29.7196C99.3531 29.613 99.6091 29.4743 99.8438 29.3036L100.532 30.4076C100.201 30.6316 99.8278 30.813 99.4118 30.9516C99.0065 31.0903 98.6065 31.1596 98.2118 31.1596Z" fill="white"/>
<path d="M103.452 24.3756H104.94V30.9996H103.452V24.3756Z" fill="white"/>
<path d="M108.155 21.4636H109.643V24.4076H111.467V25.5756H109.643V30.9996H108.155V25.5756H106.939V24.4076H108.155V21.4636Z" fill="white"/>
<path d="M112.689 27.6236C112.689 26.9623 112.843 26.365 113.153 25.8316C113.473 25.2983 113.91 24.877 114.465 24.5676C115.019 24.2583 115.649 24.1036 116.353 24.1036C117.078 24.1036 117.713 24.2583 118.257 24.5676C118.801 24.877 119.222 25.2983 119.521 25.8316C119.819 26.365 119.969 26.9623 119.969 27.6236C119.969 28.285 119.819 28.8876 119.521 29.4316C119.222 29.965 118.795 30.3863 118.241 30.6956C117.697 31.005 117.062 31.1596 116.337 31.1596C115.633 31.1596 115.003 31.0156 114.449 30.7276C113.905 30.429 113.473 30.0183 113.153 29.4956C112.843 28.9623 112.689 28.3383 112.689 27.6236ZM114.177 27.6396C114.177 28.0663 114.273 28.4556 114.465 28.8076C114.657 29.149 114.913 29.421 115.233 29.6236C115.563 29.8263 115.926 29.9276 116.321 29.9276C116.737 29.9276 117.105 29.8263 117.425 29.6236C117.755 29.421 118.011 29.149 118.193 28.8076C118.374 28.4556 118.465 28.0663 118.465 27.6396C118.465 27.213 118.374 26.829 118.193 26.4876C118.011 26.1356 117.755 25.8583 117.425 25.6556C117.105 25.4423 116.737 25.3356 116.321 25.3356C115.915 25.3356 115.547 25.4423 115.217 25.6556C114.897 25.869 114.641 26.1516 114.449 26.5036C114.267 26.845 114.177 27.2236 114.177 27.6396Z" fill="white"/>
<path d="M123.84 31.1276C123.37 31.1276 122.912 31.0476 122.464 30.8876C122.026 30.717 121.664 30.4663 121.376 30.1356L122 29.2716C122.277 29.5383 122.56 29.741 122.848 29.8796C123.146 30.0076 123.44 30.0716 123.728 30.0716C123.941 30.0716 124.138 30.045 124.32 29.9916C124.501 29.9383 124.645 29.853 124.752 29.7356C124.869 29.6076 124.928 29.437 124.928 29.2236C124.928 28.989 124.848 28.8023 124.688 28.6636C124.538 28.525 124.341 28.413 124.096 28.3276C123.861 28.2423 123.61 28.1623 123.344 28.0876C122.8 27.9063 122.384 27.6556 122.096 27.3356C121.808 27.0156 121.664 26.6263 121.664 26.1676C121.664 25.8156 121.749 25.4903 121.92 25.1916C122.101 24.8823 122.362 24.6316 122.704 24.4396C123.056 24.2476 123.488 24.1516 124 24.1516C124.458 24.1516 124.869 24.2103 125.232 24.3276C125.594 24.4343 125.936 24.6156 126.256 24.8716L125.664 25.7996C125.472 25.597 125.242 25.4476 124.976 25.3516C124.709 25.2556 124.469 25.2023 124.256 25.1916C124.074 25.181 123.898 25.2076 123.728 25.2716C123.568 25.3356 123.434 25.4263 123.328 25.5436C123.221 25.661 123.168 25.7996 123.168 25.9596C123.168 26.1836 123.242 26.365 123.392 26.5036C123.541 26.6423 123.733 26.7543 123.968 26.8396C124.213 26.9143 124.453 26.9943 124.688 27.0796C125.018 27.1756 125.312 27.3036 125.568 27.4636C125.824 27.6236 126.026 27.821 126.176 28.0556C126.336 28.2903 126.416 28.5836 126.416 28.9356C126.416 29.3303 126.32 29.6983 126.128 30.0396C125.946 30.3703 125.664 30.637 125.28 30.8396C124.906 31.0316 124.426 31.1276 123.84 31.1276Z" fill="white"/>
<path d="M82.8161 35.4316V46.9996H81.2801V41.9276H75.2161V46.9996H73.6641V35.4316H75.2161V40.4556H81.2801V35.4316H82.8161Z" fill="white"/>
<path d="M87.8764 47.2556C87.2791 47.2556 86.7831 47.0743 86.3884 46.7116C86.0044 46.3383 85.8018 45.8583 85.7804 45.2716V40.3756H87.2684V44.7436C87.2898 45.1063 87.3911 45.3996 87.5724 45.6236C87.7644 45.8476 88.0631 45.965 88.4684 45.9756C88.8418 45.9756 89.1724 45.869 89.4604 45.6556C89.7591 45.4316 89.9991 45.133 90.1804 44.7596C90.3618 44.3756 90.4524 43.9436 90.4524 43.4636V40.3756H91.9404V46.9996H90.5804L90.4524 45.3676L90.5324 45.6556C90.4044 45.965 90.2071 46.2423 89.9404 46.4876C89.6844 46.7223 89.3804 46.909 89.0284 47.0476C88.6764 47.1863 88.2924 47.2556 87.8764 47.2556Z" fill="white"/>
<path d="M95.8428 40.3756L95.9708 41.8636L95.9068 41.7356C96.1521 41.2343 96.4988 40.8396 96.9468 40.5516C97.4055 40.2636 97.9281 40.1196 98.5148 40.1196C98.8881 40.1196 99.2188 40.1783 99.5068 40.2956C99.7948 40.413 100.029 40.5836 100.211 40.8076C100.403 41.021 100.525 41.2876 100.579 41.6076L100.499 41.6556C100.755 41.1756 101.107 40.8023 101.555 40.5356C102.013 40.2583 102.493 40.1196 102.995 40.1196C103.645 40.1196 104.157 40.3063 104.531 40.6796C104.915 41.0423 105.112 41.517 105.123 42.1036V46.9996H103.635V42.6316C103.624 42.2903 103.539 42.0076 103.379 41.7836C103.229 41.549 102.963 41.421 102.579 41.3996C102.195 41.3996 101.848 41.517 101.539 41.7516C101.24 41.9863 101.005 42.2903 100.835 42.6636C100.664 43.0263 100.573 43.421 100.563 43.8476V46.9996H99.0748V42.6316C99.0641 42.2903 98.9735 42.0076 98.8028 41.7836C98.6428 41.549 98.3708 41.421 97.9868 41.3996C97.5921 41.3996 97.2455 41.517 96.9468 41.7516C96.6481 41.9863 96.4135 42.2903 96.2428 42.6636C96.0828 43.037 96.0028 43.437 96.0028 43.8636V46.9996H94.5148V40.3756H95.8428Z" fill="white"/>
<path d="M110.47 47.1596C109.851 47.1596 109.286 47.0263 108.774 46.7596C108.273 46.493 107.873 46.1036 107.574 45.5916C107.286 45.069 107.142 44.4343 107.142 43.6876C107.142 42.9516 107.297 42.317 107.606 41.7836C107.915 41.2396 108.326 40.8236 108.838 40.5356C109.361 40.2476 109.931 40.1036 110.55 40.1036C111.169 40.1036 111.691 40.2476 112.118 40.5356C112.545 40.813 112.87 41.1436 113.094 41.5276L112.998 41.7836L113.142 40.3756H114.518V46.9996H113.03V45.2716L113.19 45.6556C113.147 45.7623 113.051 45.901 112.902 46.0716C112.763 46.2316 112.571 46.397 112.326 46.5676C112.091 46.7383 111.819 46.8823 111.51 46.9996C111.201 47.1063 110.854 47.1596 110.47 47.1596ZM110.87 45.9276C111.243 45.9276 111.579 45.8583 111.878 45.7196C112.177 45.581 112.422 45.389 112.614 45.1436C112.817 44.8876 112.955 44.5836 113.03 44.2316V42.9356C112.945 42.6156 112.795 42.3383 112.582 42.1036C112.369 41.8583 112.113 41.6716 111.814 41.5436C111.515 41.405 111.185 41.3356 110.822 41.3356C110.427 41.3356 110.065 41.4316 109.734 41.6236C109.403 41.8156 109.137 42.0823 108.934 42.4236C108.742 42.765 108.646 43.165 108.646 43.6236C108.646 44.0503 108.747 44.4396 108.95 44.7916C109.153 45.1436 109.425 45.421 109.766 45.6236C110.107 45.8263 110.475 45.9276 110.87 45.9276Z" fill="white"/>
<path d="M118.421 40.3756L118.549 41.9916L118.485 41.7356C118.698 41.245 119.045 40.8556 119.525 40.5676C120.005 40.269 120.56 40.1196 121.189 40.1196C121.818 40.1196 122.33 40.3063 122.725 40.6796C123.13 41.0423 123.338 41.517 123.349 42.1036V46.9996H121.845V42.6316C121.834 42.269 121.728 41.9756 121.525 41.7516C121.333 41.517 121.029 41.3996 120.613 41.3996C120.229 41.3996 119.882 41.5063 119.573 41.7196C119.264 41.933 119.018 42.2263 118.837 42.5996C118.666 42.973 118.581 43.405 118.581 43.8956V46.9996H117.093V40.3756H118.421Z" fill="white"/>
<path d="M125.361 43.6236C125.361 42.9623 125.515 42.365 125.825 41.8316C126.145 41.2983 126.582 40.877 127.137 40.5676C127.691 40.2583 128.321 40.1036 129.025 40.1036C129.75 40.1036 130.385 40.2583 130.929 40.5676C131.473 40.877 131.894 41.2983 132.193 41.8316C132.491 42.365 132.641 42.9623 132.641 43.6236C132.641 44.285 132.491 44.8876 132.193 45.4316C131.894 45.965 131.467 46.3863 130.913 46.6956C130.369 47.005 129.734 47.1596 129.009 47.1596C128.305 47.1596 127.675 47.0156 127.121 46.7276C126.577 46.429 126.145 46.0183 125.825 45.4956C125.515 44.9623 125.361 44.3383 125.361 43.6236ZM126.849 43.6396C126.849 44.0663 126.945 44.4556 127.137 44.8076C127.329 45.149 127.585 45.421 127.905 45.6236C128.235 45.8263 128.598 45.9276 128.993 45.9276C129.409 45.9276 129.777 45.8263 130.097 45.6236C130.427 45.421 130.683 45.149 130.865 44.8076C131.046 44.4556 131.137 44.0663 131.137 43.6396C131.137 43.213 131.046 42.829 130.865 42.4876C130.683 42.1356 130.427 41.8583 130.097 41.6556C129.777 41.4423 129.409 41.3356 128.993 41.3356C128.587 41.3356 128.219 41.4423 127.889 41.6556C127.569 41.869 127.313 42.1516 127.121 42.5036C126.939 42.845 126.849 43.2236 126.849 43.6396Z" fill="white"/>
<path d="M136.511 47.1276C136.042 47.1276 135.583 47.0476 135.135 46.8876C134.698 46.717 134.335 46.4663 134.047 46.1356L134.671 45.2716C134.949 45.5383 135.231 45.741 135.519 45.8796C135.818 46.0076 136.111 46.0716 136.399 46.0716C136.613 46.0716 136.81 46.045 136.991 45.9916C137.173 45.9383 137.317 45.853 137.423 45.7356C137.541 45.6076 137.599 45.437 137.599 45.2236C137.599 44.989 137.519 44.8023 137.359 44.6636C137.21 44.525 137.013 44.413 136.767 44.3276C136.533 44.2423 136.282 44.1623 136.015 44.0876C135.471 43.9063 135.055 43.6556 134.767 43.3356C134.479 43.0156 134.335 42.6263 134.335 42.1676C134.335 41.8156 134.421 41.4903 134.591 41.1916C134.773 40.8823 135.034 40.6316 135.375 40.4396C135.727 40.2476 136.159 40.1516 136.671 40.1516C137.13 40.1516 137.541 40.2103 137.903 40.3276C138.266 40.4343 138.607 40.6156 138.927 40.8716L138.335 41.7996C138.143 41.597 137.914 41.4476 137.647 41.3516C137.381 41.2556 137.141 41.2023 136.927 41.1916C136.746 41.181 136.57 41.2076 136.399 41.2716C136.239 41.3356 136.106 41.4263 135.999 41.5436C135.893 41.661 135.839 41.7996 135.839 41.9596C135.839 42.1836 135.914 42.365 136.063 42.5036C136.213 42.6423 136.405 42.7543 136.639 42.8396C136.885 42.9143 137.125 42.9943 137.359 43.0796C137.69 43.1756 137.983 43.3036 138.239 43.4636C138.495 43.6236 138.698 43.821 138.847 44.0556C139.007 44.2903 139.087 44.5836 139.087 44.9356C139.087 45.3303 138.991 45.6983 138.799 46.0396C138.618 46.3703 138.335 46.637 137.951 46.8396C137.578 47.0316 137.098 47.1276 136.511 47.1276Z" fill="white"/>
<path d="M88.404 19.3465C88.5094 19.199 88.3953 18.9884 88.2161 19.0197C86.4324 19.3316 85.6861 20.1846 85.335 20.7927C84.9526 21.455 85.1703 22.2913 85.8213 22.6606C86.4723 23.0299 87.3101 22.7923 87.6925 22.1299C88.0432 21.5225 87.4006 20.75 88.404 19.3465Z" fill="white"/>
<path d="M106.404 19.3465C106.509 19.199 106.395 18.9884 106.216 19.0197C104.432 19.3316 103.686 20.1846 103.335 20.7927C102.953 21.455 103.17 22.2913 103.821 22.6606C104.472 23.0299 105.31 22.7923 105.692 22.1299C106.043 21.5225 105.401 20.75 106.404 19.3465Z" fill="white"/>
<defs>
<radialGradient id="paint0_radial_242_5" cx="0" cy="0" r="1" gradientUnits="userSpaceOnUse" gradientTransform="translate(55.8229 39.0102) rotate(-68.2732) scale(20.1044 15.5312)">
<stop stop-color="#F94181"/>
<stop offset="1" stop-color="#8B1840"/>
</radialGradient>
<radialGradient id="paint1_radial_242_5" cx="0" cy="0" r="1" gradientUnits="userSpaceOnUse" gradientTransform="translate(43.9753 51.2012) rotate(-8.40705) scale(20.3063 15.3767)">
<stop stop-color="#F94181"/>
<stop offset="1" stop-color="#8B1840"/>
</radialGradient>
<radialGradient id="paint2_radial_242_5" cx="0" cy="0" r="1" gradientUnits="userSpaceOnUse" gradientTransform="translate(26.8899 50.6975) rotate(41.1571) scale(20.2068 15.4525)">
<stop stop-color="#F94181"/>
<stop offset="1" stop-color="#8B1840"/>
</radialGradient>
<radialGradient id="paint3_radial_242_5" cx="0" cy="0" r="1" gradientUnits="userSpaceOnUse" gradientTransform="translate(16.6034 37.0535) rotate(91.5119) scale(20.0722 15.5561)">
<stop stop-color="#F94181"/>
<stop offset="1" stop-color="#8B1840"/>
</radialGradient>
<radialGradient id="paint4_radial_242_5" cx="0" cy="0" r="1" gradientUnits="userSpaceOnUse" gradientTransform="translate(21.063 20.4898) rotate(141.825) scale(20.2191 15.4431)">
<stop stop-color="#F94181"/>
<stop offset="1" stop-color="#8B1840"/>
</radialGradient>
<radialGradient id="paint5_radial_242_5" cx="0" cy="0" r="1" gradientUnits="userSpaceOnUse" gradientTransform="translate(37.0838 13.5983) rotate(-168.638) scale(20.3021 15.3799)">
<stop stop-color="#F94181"/>
<stop offset="1" stop-color="#8B1840"/>
</radialGradient>
<radialGradient id="paint6_radial_242_5" cx="0" cy="0" r="1" gradientUnits="userSpaceOnUse" gradientTransform="translate(52.6194 21.7753) rotate(-118.792) scale(20.1269 15.5138)">
<stop stop-color="#F94181"/>
<stop offset="1" stop-color="#8B1840"/>
</radialGradient>
</defs>
</svg>
