<svg width="2267" height="2274" viewBox="0 0 2267 2274" fill="none" xmlns="http://www.w3.org/2000/svg">
<path d="M591 2179C591 2126.53 633.533 2084 686 2084H1579C1631.47 2084 1674 2126.53 1674 2179V2274H591V2179Z" fill="#8B1840"/>
<ellipse cx="1133" cy="2064" rx="255" ry="210" fill="#8B1840"/>
<rect x="1035" y="837" width="196" height="1089" fill="#8B1840"/>
<path d="M1318 698C1318 722.295 1313.21 746.351 1303.92 768.796C1294.62 791.242 1280.99 811.636 1263.81 828.815C1246.64 845.994 1226.24 859.621 1203.8 868.918C1181.35 878.215 1157.29 883 1133 883C1108.71 883 1084.65 878.215 1062.2 868.918C1039.76 859.621 1019.36 845.994 1002.19 828.815C985.006 811.636 971.379 791.242 962.082 768.796C952.785 746.351 948 722.295 948 698L1133 698H1318Z" fill="#8B1840"/>
<circle cx="1132.5" cy="425.5" r="156.5" fill="#8B1840"/>
<path d="M1218 163C1218 209.944 1179.94 248 1133 248C1086.06 248 1048 209.944 1048 163C1048 116.056 1086.06 0 1133 0C1179.94 0 1218 116.056 1218 163Z" fill="#8B1840"/>
<path d="M1035 372.454C884 261.954 698.532 282.237 520 392.454" stroke="#8B1840" stroke-width="102"/>
<path d="M1231 372.454C1382 261.954 1567.47 282.237 1746 392.454" stroke="#8B1840" stroke-width="102"/>
<circle cx="448.5" cy="425.5" r="105.5" fill="#8B1840"/>
<circle cx="1817.5" cy="425.5" r="105.5" fill="#8B1840"/>
<path d="M228.777 1414.25L448.5 746.057L668.223 1414.25H228.777Z" stroke="#8B1840" stroke-width="90"/>
<path d="M1597.78 1414.25L1817.5 746.057L2037.22 1414.25H1597.78Z" stroke="#8B1840" stroke-width="90"/>
<path d="M898 1381.5C898 1420.7 886.386 1459.52 863.822 1495.73C841.258 1531.95 808.184 1564.85 766.491 1592.57C724.797 1620.29 675.3 1642.28 620.825 1657.28C566.35 1672.28 507.964 1680 449 1680C390.036 1680 331.65 1672.28 277.175 1657.28C222.7 1642.28 173.203 1620.29 131.509 1592.57C89.8155 1564.85 56.7424 1531.95 34.1781 1495.73C11.6137 1459.52 -5.15475e-06 1420.7 0 1381.5L449 1381.5H898Z" fill="#8B1840"/>
<path d="M2267 1381.5C2267 1420.7 2255.39 1459.52 2232.82 1495.73C2210.26 1531.95 2177.18 1564.85 2135.49 1592.57C2093.8 1620.29 2044.3 1642.28 1989.82 1657.28C1935.35 1672.28 1876.96 1680 1818 1680C1759.04 1680 1700.65 1672.28 1646.18 1657.28C1591.7 1642.28 1542.2 1620.29 1500.51 1592.57C1458.82 1564.85 1425.74 1531.95 1403.18 1495.73C1380.61 1459.52 1369 1420.7 1369 1381.5L1818 1381.5H2267Z" fill="#8B1840"/>
</svg>
