<svg width="2342" height="1332" viewBox="0 0 2342 1332" fill="none" xmlns="http://www.w3.org/2000/svg">
<path fill-rule="evenodd" clip-rule="evenodd" d="M1598.32 727.766L1569.63 756.14L1546.2 747.363L1588.85 626.794L1601.44 625.446C1545.35 440.561 1373.65 306 1170.55 306C967.478 306 795.808 440.516 739.685 625.352L753.151 626.794L795.804 747.363L772.366 756.14L743.678 727.766L725.123 690.384C723.919 698.574 722.936 706.836 722.179 715.164L748.296 765.154L741.274 781.806L720.998 781.648C721.349 788.024 721.832 794.364 722.445 800.666L843.78 755.229L822.48 788.299L857.985 888.664L788.941 914.52L723.837 813.171C751.691 1035.22 941.071 1207 1170.55 1207C1399.42 1207 1588.41 1036.13 1617.03 814.927L1553.06 914.52L1484.01 888.664L1519.52 788.299L1498.22 755.229L1618.68 800.339C1619.28 794.147 1619.75 787.918 1620.1 781.655L1600.73 781.806L1593.7 765.154L1619.05 716.643C1618.32 708.292 1617.36 700.007 1616.18 691.793L1598.32 727.766ZM1571.24 567.061L1587.76 603.507L1556.87 690.838L1501.71 648.04L1527.53 575.047L1571.24 567.061ZM1466.67 730.866L1537.51 696.876L1445.1 619.463L1344.88 675.664L1393.43 854.744L1471.35 883.92L1502.7 795.286L1415.82 702.231L1466.67 730.866ZM1499.37 551.219L1513.07 581.442L1492.55 639.445L1452.42 608.918L1428.46 611.754L1447.83 557.01L1499.37 551.219ZM1469.15 902.288L1538.83 928.381L1495.49 1050.9L1432.71 1027.4L1471.23 918.486L1505.73 931.403L1469.15 902.288ZM1462.82 899.916L1391.87 873.349L1348.53 995.873L1397.74 1014.3L1427.5 930.191L1409.28 889.618L1445.71 903.26L1405.41 1017.17L1419.47 1022.44L1462.82 899.916ZM1149.56 445.268L1121.92 473.703V566.639L1187.98 545.832V468.155L1149.56 445.268ZM1088.21 482.719L1062.6 519.477L1070.69 586.751L1088.21 623.51H1113.16V495.203L1088.21 482.719ZM1034.29 519.477L1016.09 537.51V623.51L1050.47 636.687L1062.6 623.51L1050.47 537.51L1034.29 519.477ZM1193.37 635.993L1138.1 579.122L1250.67 538.897L1326.17 626.977L1221.01 778.171H1138.1V683.848L1250.67 626.977L1193.37 635.993ZM1222.36 455.671L1199.44 479.251V540.977L1247.3 526.413L1268.87 537.51V479.251L1222.36 455.671ZM1155.62 647.784H1020.81L1051.14 778.171H1124.62V671.364L1155.62 647.784ZM1134.05 796.203H1059.9V926.59H1126.71V810.691H1090L1134.05 796.203ZM1140.79 796.203H1216.29V926.59H1163.92V837.081L1194.53 805.365H1155.76V926.59H1140.79V796.203ZM770.757 567.061L754.239 603.507L785.133 690.838L840.293 648.04L814.472 575.047L770.757 567.061ZM875.333 730.866L804.486 696.876L896.898 619.463L997.123 675.664L948.567 854.744L870.654 883.92L839.299 795.286L926.178 702.231L875.333 730.866ZM842.627 551.219L828.929 581.442L849.448 639.445L889.581 608.918L913.539 611.754L894.173 557.01L842.627 551.219ZM872.848 902.288L803.17 928.381L846.514 1050.9L909.293 1027.4L870.765 918.486L836.271 931.403L872.848 902.288ZM879.182 899.916L950.127 873.349L993.471 995.873L944.257 1014.3L914.502 930.191L932.721 889.618L896.289 903.26L936.587 1017.17L922.526 1022.44L879.182 899.916Z" fill="#8B1840"/>
<path d="M2286.05 836.187C1435.65 1419.63 944.265 1437 56.2933 836.319C50.9021 832.672 50.3895 824.641 55.2561 820.319C929.972 43.4935 1422.11 21.5523 2287.16 820.356C2291.86 824.699 2291.33 832.566 2286.05 836.187Z" stroke="#8B1840" stroke-width="102"/>
<path d="M110 282C937.475 -0.508774 1391.91 -49.4682 2166 282" stroke="#8B1840" stroke-width="102" stroke-linecap="round"/>
</svg>
