<svg width="807" height="807" viewBox="0 0 807 807" fill="none" xmlns="http://www.w3.org/2000/svg">
<circle cx="403.5" cy="403.5" r="403.5" fill="#F5F5F5"/>
<path d="M407.977 164.121L438.481 208.979L711.205 259.789L718.381 222.108L650.577 210.327L558.7 192.828L407.977 164.121Z" fill="#FF4D4D"/>
<path d="M711.205 259.789L438.481 208.979L484.237 276.265L700.439 316.31L711.205 259.789Z" fill="#FFAF2F"/>
<path d="M700.439 316.31L484.237 276.265L529.993 343.551L689.466 373.925L700.439 316.31Z" fill="#FFEF3D"/>
<path d="M689.466 373.925L529.993 343.551L462.707 389.307L678.805 429.899L689.466 373.925Z" fill="#25B009"/>
<path d="M395.421 435.063L668.144 485.873L678.805 429.899L462.707 389.307L395.421 435.063Z" fill="#3224EC"/>
<path d="M395.421 435.063L350.563 465.567L501.286 494.274L593.163 511.773L660.967 523.554L668.144 485.873L395.421 435.063Z" fill="#412142"/>
<path d="M354.754 319.475L213.018 483.773L239.891 481.792L381.626 317.494L217.328 175.758L190.456 177.74L354.754 319.475Z" fill="#32281A"/>
<path d="M196.95 465.727L198.361 484.854L213.018 483.773L354.754 319.475L190.456 177.74L175.798 178.82L177.209 197.947L320.969 321.966L196.95 465.727Z" fill="#96EAED"/>
<path d="M301.842 323.376L195.54 446.6L196.95 465.727L320.969 321.966L177.209 197.947L178.619 217.074L301.842 323.376Z" fill="#FDB3F8"/>
<path d="M263.588 326.197L192.72 408.346L195.54 446.6L301.842 323.376L178.619 217.074L181.439 255.329L263.588 326.197Z" fill="#EDEDED"/>
<path d="M229.802 329.804C230.417 338.144 224.154 345.404 215.813 346.019C207.473 346.634 200.213 340.371 199.598 332.031C198.983 323.69 205.246 316.43 213.587 315.815C221.927 315.201 229.187 321.463 229.802 329.804Z" fill="#FFEF3D"/>
<path fill-rule="evenodd" clip-rule="evenodd" d="M232.467 329.607C233.19 339.42 225.822 347.961 216.01 348.684C206.197 349.408 197.657 342.039 196.933 332.227C196.21 322.415 203.578 313.874 213.39 313.15C223.202 312.427 231.743 319.795 232.467 329.607ZM215.813 346.019C224.154 345.404 230.417 338.144 229.802 329.804C229.187 321.463 221.927 315.201 213.587 315.815C205.246 316.43 198.983 323.69 199.598 332.031C200.213 340.371 207.473 346.634 215.813 346.019Z" fill="#733F74"/>
<path fill-rule="evenodd" clip-rule="evenodd" d="M192.72 408.346L263.588 326.197L181.439 255.329L192.72 408.346ZM216.01 348.684C225.822 347.961 233.19 339.42 232.467 329.607C231.743 319.795 223.202 312.427 213.39 313.15C203.578 313.874 196.21 322.415 196.933 332.227C197.657 342.039 206.197 349.408 216.01 348.684Z" fill="#FFEF3D"/>
<path d="M244.201 173.777L285.275 209.211L561.857 187.704L559.036 149.45L490.494 155.619L244.201 173.777Z" fill="#FF4D4D"/>
<path d="M561.857 187.704L285.275 209.211L346.887 262.362L566.087 245.085L561.857 187.704Z" fill="#FFAF2F"/>
<path d="M566.087 245.085L346.887 262.362L408.499 315.513L570.399 303.577L566.087 245.085Z" fill="#FFEF3D"/>
<path d="M239.891 481.792L266.763 479.811L302.197 438.737L355.348 377.125L408.499 315.513L346.887 262.362L285.275 209.211L244.201 173.777L217.328 175.758L381.626 317.494L239.891 481.792Z" fill="#111111"/>
<path d="M570.399 303.577L408.499 315.513L355.348 377.125L574.589 360.403L570.399 303.577Z" fill="#25B009"/>
<path d="M302.197 438.737L578.778 417.23L574.589 360.403L355.348 377.125L302.197 438.737Z" fill="#3224EC"/>
<path d="M302.197 438.737L266.763 479.811L513.056 461.653L581.598 455.484L578.778 417.23L302.197 438.737Z" fill="#412142"/>
<path d="M168.904 703.173L130.493 182.16L162.473 179.803L200.885 700.815L168.904 703.173Z" fill="#373737"/>
</svg>
