<svg width="807" height="807" viewBox="0 0 807 807" fill="none" xmlns="http://www.w3.org/2000/svg">
<circle cx="403.5" cy="403.5" r="403.5" fill="#F5F5F5"/>
<path d="M700.781 266.805L713.033 293.08L690.118 356.039L649.203 325.185L668.356 272.562L700.781 266.805Z" fill="#F8CCB5"/>
<path d="M734.302 307.738L743.093 339.138L720.867 382.661L699.587 403.117L682.203 396.79L713.84 309.868L734.302 307.738Z" fill="#F8CCB5"/>
<path d="M762.827 346.321L771.066 363.154L749.861 421.415L722.65 421.621L717.442 409.615L747.104 354.433L762.827 346.321Z" fill="#F8CCB5"/>
<path d="M623.213 384.897L675.763 360.392L607.218 304.582L532.877 345.1L568.892 474.204L626.684 495.238L649.941 431.339L585.499 364.253L623.213 384.897Z" fill="#F8CCB5"/>
<path d="M647.472 255.383L657.633 277.172L642.413 318.989L612.645 296.98L594.874 299.025L609.239 259.558L647.472 255.383Z" fill="#F8CCB5"/>
<path d="M646.617 402.461L740.587 436.663L687.294 517.298L636.08 498.658L662.416 426.302L646.617 402.461Z" fill="#F8CCB5"/>
<path d="M625.056 508.48L676.739 527.291L644.59 615.622L598.024 598.674L626.601 520.157L652.187 529.47L625.056 508.48Z" fill="#F8CCB5"/>
<path d="M620.358 506.77L567.735 487.617L535.585 575.948L572.089 589.234L594.16 528.596L580.646 499.345L607.669 509.181L577.778 591.305L588.208 595.101L620.358 506.77Z" fill="#F8CCB5"/>
<path d="M388 179L367.5 199.5V266.5L416.5 251.5V195.5L388 179Z" fill="#654C43"/>
<path d="M342.5 206L323.5 232.5L329.5 281L342.5 307.5H361V215L342.5 206Z" fill="#654C43"/>
<path d="M302.5 232.5L289 245.5V307.5L314.5 317L323.5 307.5L314.5 245.5L302.5 232.5Z" fill="#654C43"/>
<path d="M420.5 316.5L379.5 275.5L463 246.5L519 310L441 419H379.5V351L463 310L420.5 316.5Z" fill="#654C43"/>
<path d="M442 186.5L425 203.5V248L460.5 237.5L476.5 245.5V203.5L442 186.5Z" fill="#654C43"/>
<path d="M392.5 325H292.5L315 419H369.5V342L392.5 325Z" fill="#654C43"/>
<path d="M376.5 432H321.5V526H371.054V442.444H343.827L376.5 432Z" fill="#654C43"/>
<path d="M381.5 432H437.5V526H398.653V461.47L421.356 438.605H392.599V526H381.5V432Z" fill="#654C43"/>
<path d="M107.03 266.805L94.7773 293.08L117.693 356.039L158.607 325.185L139.454 272.562L107.03 266.805Z" fill="#E9DAAB"/>
<path d="M73.5081 307.738L64.7175 339.138L86.9436 382.661L108.223 403.117L125.607 396.79L93.9706 309.868L73.5081 307.738Z" fill="#E9DAAB"/>
<path d="M44.9839 346.321L36.7443 363.154L57.9496 421.415L85.1609 421.621L90.369 409.615L60.7065 354.433L44.9839 346.321Z" fill="#E9DAAB"/>
<path d="M184.597 384.897L132.047 360.392L200.593 304.582L274.934 345.1L238.918 474.204L181.127 495.238L157.87 431.339L222.311 364.253L184.597 384.897Z" fill="#E9DAAB"/>
<path d="M160.338 255.383L150.178 277.172L165.398 318.989L195.165 296.98L212.937 299.025L198.572 259.558L160.338 255.383Z" fill="#E9DAAB"/>
<path d="M161.193 402.461L67.2239 436.663L120.517 517.298L171.73 498.658L145.395 426.302L161.193 402.461Z" fill="#E9DAAB"/>
<path d="M182.754 508.48L131.071 527.291L163.221 615.622L209.787 598.674L181.209 520.157L155.624 529.47L182.754 508.48Z" fill="#E9DAAB"/>
<path d="M187.453 506.77L240.075 487.617L272.225 575.948L235.721 589.234L213.651 528.596L227.164 499.345L200.142 509.181L230.032 591.305L219.603 595.101L187.453 506.77Z" fill="#E9DAAB"/>
</svg>
